# xmcd
#
# Track frame offsets: 
#        150
#        13579
#        26927
#        38612
#        51701
#        65907
#        78222
#        91223
#        102756
#        115843
#        128522
#        140574
#        153483
#        166545
#        180108
#        193209
#        205903
#        218107
#        232475
#        246872
#        260033
#
# Disc length: 3635 seconds
#
# Revision: 0
# Processed by: cddbd v1.5.2PL0 Copyright (c) Steve Scherf et al.
# Submitted via: ExactAudioCopy v0.95b4
#
DISCID=2a0e3115
DTITLE=Big Maceo Merriweather - Chicago Breakdown
DYEAR=1900
DGENRE=Blues
TTITLE0=Chicago Breakdown
TTITLE1=Big Road Blues
TTITLE2=Kidman Blues
TTITLE3=Winter Time Blues
TTITLE4=Maceo´s 32-20
TTITLE5=Broke and Hungry Blues
TTITLE6=Texas Stomp
TTITLE7=I´m so Worried
TTITLE8=It´s All Over Now
TTITLE9=Detroit Jump
TTITLE10=My Own Troubles
TTITLE11=Since You Been Gone
TTITLE12=Worried Life Blues
TTITLE13=Tuff Luck Blues
TTITLE14=County Jail Blues
TTITLE15=I Got The Blues
TTITLE16=So Long Baby
TTITLE17=Ramblin´Mind Blues
TTITLE18=Why Should I Hang Around?
TTITLE19=Bye, Bye Baby
TTITLE20=Anytime For You
EXTD=
EXTT0=
EXTT1=
EXTT2=
EXTT3=
EXTT4=
EXTT5=
EXTT6=
EXTT7=
EXTT8=
EXTT9=
EXTT10=
EXTT11=
EXTT12=
EXTT13=
EXTT14=
EXTT15=
EXTT16=
EXTT17=
EXTT18=
EXTT19=
EXTT20=
PLAYORDER=
